<svg width="800" height="800" viewBox="0 0 800 800" fill="none" xmlns="http://www.w3.org/2000/svg">
<g clip-path="url(#clip0_2207_44)">
<path d="M722.305 129.89H614.252V34.0132C614.252 15.2289 599.023 0 580.238 0H77.6954C58.911 0 43.6821 15.2289 43.6821 34.0132V636.097C43.6821 654.882 58.911 670.11 77.6954 670.11H185.746V765.985C185.746 784.769 200.975 799.998 219.76 799.998H722.305C741.089 799.998 756.318 784.769 756.318 765.985V163.903C756.318 145.119 741.089 129.89 722.305 129.89ZM111.709 602.084V68.0264H546.223V129.89H219.762C200.977 129.89 185.749 145.119 185.749 163.903V602.084H111.709ZM688.292 731.974H253.775V197.916H688.292V731.974Z" fill="black"/>
</g>
<defs>
<clipPath id="clip0_2207_44">
<rect width="800" height="800" fill="white"/>
</clipPath>
</defs>
</svg>
