<svg width="18" height="20" viewBox="0 0 18 20" fill="none" xmlns="http://www.w3.org/2000/svg">
<path d="M11.2497 9.99864V18.753C11.2947 19.0863 11.1822 19.4418 10.9235 19.6751C10.8194 19.7781 10.6958 19.8598 10.5597 19.9156C10.4237 19.9713 10.2778 20 10.1305 20C9.98315 20 9.83728 19.9713 9.7012 19.9156C9.56512 19.8598 9.44152 19.7781 9.33745 19.6751L7.07652 17.4421C6.95384 17.3236 6.86055 17.1788 6.80396 17.0188C6.74738 16.8588 6.72901 16.6881 6.75031 16.52V9.99864H6.71657L0.237463 1.79976C0.0547977 1.56815 -0.0276246 1.27456 0.00820636 0.983122C0.0440373 0.691686 0.195208 0.426105 0.428687 0.244411C0.642407 0.0888768 0.878625 0 1.12609 0H16.8739C17.1214 0 17.3576 0.0888768 17.5713 0.244411C17.8048 0.426105 17.956 0.691686 17.9918 0.983122C18.0276 1.27456 17.9452 1.56815 17.7625 1.79976L11.2834 9.99864H11.2497Z" />
</svg>
