<svg width="805" height="805" viewBox="0 0 805 805" fill="none" xmlns="http://www.w3.org/2000/svg">
<circle cx="402.5" cy="402.5" r="402.5" fill="#222222"/>
<path d="M199.082 525.743C201.134 526.927 203.462 527.55 205.832 527.55C208.201 527.55 210.529 526.927 212.581 525.743C258.071 498.767 292.357 447.376 305.72 425.255L315.574 408.26L329.072 386.409C352.83 352.823 398.724 291.046 448.534 291.046C511.302 291.046 565.835 383.576 580.549 407.72C565.835 431.864 510.627 514.818 447.724 514.818C399.939 514.818 356.339 466.529 331.907 432.944L328.128 439.418C328.128 439.418 325.501 440.089 317.807 450.071C346.559 487.838 392.11 542.334 448.534 542.334C537.489 542.334 606.061 419.995 608.895 414.734L612 408.26L608.355 401.785C605.521 396.525 535.135 263.001 446.18 263.001C377.878 263.001 323.538 346.213 299.511 382.092C300.051 381.283 284.123 408.26 284.123 408.26L283.178 409.744C275.88 422.863 267.385 435.28 257.801 446.837C246.347 461.605 233.411 475.164 219.195 487.302V328.948C237.697 344.76 254.075 362.894 267.924 382.902L270.084 379.395L283.583 357.948C264.67 331.367 240.789 308.695 213.256 291.181C211.212 289.969 208.883 289.317 206.506 289.293C204.151 289.349 201.841 289.949 199.757 291.046C197.697 292.234 195.988 293.946 194.803 296.006C193.618 298.067 192.999 300.404 193.008 302.781L193.008 514.008C192.928 516.321 193.445 518.615 194.509 520.67C195.573 522.725 197.148 524.472 199.082 525.743Z" fill="#1FCFCF"/>
</svg>
