<svg width="132" height="98" viewBox="0 0 132 98" fill="none" xmlns="http://www.w3.org/2000/svg">
<rect x="1" y="1" width="130" height="96" rx="25" stroke="#1FCFCF" stroke-width="2"/>
<path d="M75.8333 47.6667H79.45C79.8611 47.6667 80.2553 47.83 80.546 48.1206C80.8367 48.4113 81 48.8056 81 49.2167V66.7833C81 67.1944 80.8367 67.5887 80.546 67.8793C80.2553 68.17 79.8611 68.3333 79.45 68.3333H51.55C51.1389 68.3333 50.7447 68.17 50.454 67.8793C50.1633 67.5887 50 67.1944 50 66.7833V49.2167C50 48.8056 50.1633 48.4113 50.454 48.1206C50.7447 47.83 51.1389 47.6667 51.55 47.6667H55.1667M75.8333 47.6667V37.3333C75.8333 33.8897 73.7667 27 65.5 27C57.2333 27 55.1667 33.8897 55.1667 37.3333V47.6667M75.8333 47.6667H55.1667" stroke="#1FCFCF" stroke-width="3.875" stroke-linecap="round" stroke-linejoin="round"/>
</svg>
