<svg width="805" height="805" viewBox="0 0 805 805" fill="none" xmlns="http://www.w3.org/2000/svg">
<circle cx="402.5" cy="402.5" r="402.5" fill="#222222"/>
<path d="M402.963 487.025C380.546 487.025 359.047 478.12 343.195 462.268C327.344 446.417 318.438 424.917 318.438 402.5C318.438 380.083 327.344 358.583 343.195 342.732C359.047 326.88 380.546 317.975 402.963 317.975C425.381 317.975 446.88 326.88 462.732 342.732C478.583 358.583 487.488 380.083 487.488 402.5C487.488 424.917 478.583 446.417 462.732 462.268C446.88 478.12 425.381 487.025 402.963 487.025ZM582.398 425.926C583.364 418.198 584.088 410.47 584.088 402.5C584.088 394.531 583.364 386.561 582.398 378.35L633.354 338.986C637.943 335.363 639.15 328.843 636.252 323.53L587.952 239.971C585.054 234.658 578.534 232.484 573.221 234.658L513.087 258.808C500.529 249.389 487.488 241.178 472.274 235.141L463.338 171.143C462.848 168.299 461.366 165.72 459.156 163.863C456.946 162.007 454.15 160.992 451.263 161H354.663C348.626 161 343.554 165.347 342.588 171.143L333.653 235.141C318.438 241.178 305.397 249.389 292.839 258.808L232.706 234.658C227.393 232.484 220.872 234.658 217.974 239.971L169.674 323.53C166.535 328.843 167.984 335.363 172.572 338.986L223.529 378.35C222.563 386.561 221.838 394.531 221.838 402.5C221.838 410.47 222.563 418.198 223.529 425.926L172.572 466.015C167.984 469.637 166.535 476.158 169.674 481.471L217.974 565.029C220.872 570.342 227.393 572.275 232.706 570.343L292.839 545.951C305.397 555.611 318.438 563.822 333.653 569.86L342.588 633.857C343.554 639.653 348.626 644 354.663 644H451.263C457.301 644 462.372 639.653 463.338 633.857L472.274 569.86C487.488 563.581 500.529 555.611 513.087 545.951L573.221 570.343C578.534 572.275 585.054 570.342 587.952 565.029L636.252 481.471C639.15 476.158 637.943 469.637 633.354 466.015L582.398 425.926Z" fill="#1FCFCF"/>
</svg>
