<svg width="22" height="21" viewBox="0 0 22 21" fill="none" xmlns="http://www.w3.org/2000/svg">
<path d="M21.0249 18.7656L17.2449 15.0162C18.7122 13.1867 19.4227 10.8646 19.2305 8.52739C19.0382 6.19013 17.9578 4.01535 16.2113 2.45025C14.4648 0.88514 12.1851 0.0486618 9.84078 0.11281C7.4965 0.176957 5.2659 1.13686 3.60763 2.79513C1.94936 4.4534 0.989457 6.684 0.92531 9.02828C0.861162 11.3726 1.69764 13.6523 3.26275 15.3988C4.82785 17.1453 7.00263 18.2257 9.33989 18.418C11.6771 18.6102 13.9992 17.8997 15.8287 16.4324L19.5781 20.1818C19.6728 20.2773 19.7855 20.3531 19.9096 20.4048C20.0338 20.4565 20.167 20.4832 20.3015 20.4832C20.436 20.4832 20.5691 20.4565 20.6933 20.4048C20.8175 20.3531 20.9301 20.2773 21.0249 20.1818C21.2085 19.9918 21.3112 19.7379 21.3112 19.4737C21.3112 19.2095 21.2085 18.9556 21.0249 18.7656ZM10.1129 16.4324C8.70232 16.4324 7.32341 16.0141 6.15056 15.2304C4.97771 14.4468 4.06358 13.3329 3.52378 12.0297C2.98397 10.7265 2.84274 9.29248 3.11793 7.90901C3.39312 6.52553 4.07237 5.25473 5.0698 4.2573C6.06723 3.25987 7.33803 2.58062 8.72151 2.30543C10.105 2.03024 11.539 2.17147 12.8422 2.71128C14.1454 3.25108 15.2593 4.16521 16.0429 5.33806C16.8266 6.51091 17.2449 7.88982 17.2449 9.30039C17.2449 11.1919 16.4935 13.006 15.156 14.3435C13.8185 15.681 12.0044 16.4324 10.1129 16.4324Z" />
</svg>
