<svg width="805" height="805" viewBox="0 0 805 805" fill="none" xmlns="http://www.w3.org/2000/svg">
<circle cx="402.5" cy="402.5" r="402.5" fill="#222222"/>
<path d="M240.067 316.303C226.775 316.303 216 305.528 216 292.236V232.067C216 218.775 226.775 208 240.067 208H565.933C579.225 208 590 218.775 590 232.067V292.236C590 305.528 579.225 316.303 565.933 316.303H240.067ZM290.354 359.625C303.646 359.625 314.421 370.4 314.421 383.692V573.824C314.421 587.116 303.646 597.892 290.354 597.892H240.067C226.775 597.892 216 587.116 216 573.824V383.692C216 370.4 226.775 359.625 240.067 359.625H290.354ZM590 573.824C590 587.116 579.225 597.892 565.933 597.892H515.646C502.354 597.892 491.579 587.116 491.579 573.824V383.692C491.579 370.4 502.354 359.625 515.646 359.625H565.933C579.225 359.625 590 370.4 590 383.692V573.824ZM428.143 359.625C441.435 359.625 452.211 370.4 452.211 383.692V573.824C452.211 587.116 441.435 597.892 428.143 597.892H377.857C364.565 597.892 353.789 587.116 353.789 573.824V383.692C353.789 370.4 364.565 359.625 377.857 359.625H428.143Z" fill="#1FCFCF"/>
</svg>
