<svg width="805" height="805" viewBox="0 0 805 805" fill="none" xmlns="http://www.w3.org/2000/svg">
<circle cx="402.5" cy="402.5" r="402.5" fill="#222222"/>
<path fill-rule="evenodd" clip-rule="evenodd" d="M354.497 306.268C342.039 315.606 336.409 326.798 336.409 337.244C336.409 347.712 342.039 358.904 354.497 368.265C366.978 377.626 385.247 384.092 406.387 384.092C412.384 384.092 418.135 386.474 422.375 390.714C426.615 394.955 428.997 400.706 428.997 406.702C428.997 412.699 426.615 418.45 422.375 422.69C418.135 426.93 412.384 429.312 406.387 429.312C376.406 429.312 348.392 420.223 327.365 404.441C306.337 388.659 291.188 365.145 291.188 337.266C291.188 309.366 306.337 285.851 327.365 270.069C348.392 254.31 376.429 245.221 406.387 245.221C452.806 245.221 496.692 267.446 514.147 304.459C515.413 307.146 516.138 310.057 516.28 313.024C516.421 315.991 515.977 318.957 514.972 321.753C513.968 324.548 512.422 327.118 510.424 329.317C508.426 331.515 506.015 333.298 503.328 334.565C500.641 335.831 497.731 336.556 494.763 336.697C491.796 336.839 488.83 336.395 486.035 335.39C483.239 334.385 480.669 332.84 478.47 330.842C476.272 328.844 474.489 326.433 473.223 323.746C465.309 306.856 440.619 290.441 406.41 290.441C385.269 290.441 366.978 296.907 354.497 306.268Z" fill="#1FCFCF"/>
<path fill-rule="evenodd" clip-rule="evenodd" d="M450.81 507.113C463.268 497.775 468.875 486.583 468.875 476.137C468.875 465.669 463.268 454.454 450.787 445.116C438.329 435.756 420.037 429.289 398.919 429.289C392.923 429.289 387.172 426.907 382.932 422.667C378.691 418.427 376.309 412.676 376.309 406.679C376.309 400.682 378.691 394.932 382.932 390.691C387.172 386.451 392.923 384.069 398.919 384.069C428.9 384.069 456.914 393.158 477.942 408.94C498.969 424.722 514.095 448.236 514.095 476.115C514.095 503.993 498.969 527.53 477.919 543.289C456.892 559.071 428.9 568.161 398.919 568.161C352.501 568.161 308.592 545.935 291.16 508.899C288.602 503.476 288.304 497.258 290.331 491.614C292.357 485.97 296.543 481.363 301.967 478.805C307.391 476.248 313.609 475.95 319.253 477.976C324.896 480.003 329.504 484.189 332.061 489.613C340.02 506.525 364.71 522.94 398.919 522.94C420.06 522.94 438.329 516.474 450.81 507.113ZM402.04 200C408.036 200 413.787 202.382 418.027 206.622C422.268 210.863 424.65 216.614 424.65 222.61V245.22C424.65 251.217 422.268 256.968 418.027 261.208C413.787 265.448 408.036 267.83 402.04 267.83C396.043 267.83 390.292 265.448 386.052 261.208C381.812 256.968 379.429 251.217 379.429 245.22V222.61C379.429 216.614 381.812 210.863 386.052 206.622C390.292 202.382 396.043 200 402.04 200Z" fill="#1FCFCF"/>
<path fill-rule="evenodd" clip-rule="evenodd" d="M402.038 539.146C408.034 539.146 413.785 541.529 418.026 545.769C422.266 550.009 424.648 555.76 424.648 561.757V584.367C424.648 590.363 422.266 596.114 418.026 600.354C413.785 604.595 408.034 606.977 402.038 606.977C396.041 606.977 390.29 604.595 386.05 600.354C381.81 596.114 379.428 590.363 379.428 584.367V561.757C379.428 555.76 381.81 550.009 386.05 545.769C390.29 541.529 396.041 539.146 402.038 539.146Z" fill="#1FCFCF"/>
</svg>
