<svg width="805" height="805" viewBox="0 0 805 805" fill="none" xmlns="http://www.w3.org/2000/svg">
<circle cx="402.5" cy="402.5" r="402.5" fill="#222222"/>
<path fill-rule="evenodd" clip-rule="evenodd" d="M245.111 274.558C245.111 271.452 246.299 268.473 248.414 266.276C250.529 264.08 253.398 262.846 256.389 262.846H493.222C499.204 262.846 504.941 260.378 509.171 255.986C513.401 251.593 515.778 245.635 515.778 239.423C515.778 233.211 513.401 227.253 509.171 222.86C504.941 218.468 499.204 216 493.222 216H256.389C241.434 216 227.091 222.169 216.516 233.151C205.941 244.133 200 259.027 200 274.558V543.923C200 556.347 204.753 568.263 213.213 577.048C221.673 585.834 233.147 590.769 245.111 590.769H560.889C572.853 590.769 584.327 585.834 592.787 577.048C601.247 568.263 606 556.347 606 543.923V333.115C606 320.691 601.247 308.776 592.787 299.99C584.327 291.205 572.853 286.269 560.889 286.269H256.389C253.398 286.269 250.529 285.035 248.414 282.839C246.299 280.643 245.111 277.664 245.111 274.558ZM481.944 473.654C490.918 473.654 499.523 469.952 505.868 463.363C512.213 456.774 515.778 447.838 515.778 438.519C515.778 429.201 512.213 420.264 505.868 413.675C499.523 407.086 490.918 403.385 481.944 403.385C472.971 403.385 464.366 407.086 458.021 413.675C451.676 420.264 448.111 429.201 448.111 438.519C448.111 447.838 451.676 456.774 458.021 463.363C464.366 469.952 472.971 473.654 481.944 473.654V473.654Z" fill="#1FCFCF"/>
</svg>
