<svg width="32" height="24" viewBox="0 0 32 24" fill="none" xmlns="http://www.w3.org/2000/svg">
<path d="M26.9472 1.95299C24.918 1.05037 22.7428 0.38322 20.4682 0.00385923C20.448 2.36536e-05 20.427 0.00249544 20.4082 0.0109328C20.3895 0.0193701 20.3738 0.0333556 20.3634 0.0509523C20.0849 0.533656 19.7746 1.16287 19.5571 1.65996C17.1446 1.30446 14.692 1.30446 12.2796 1.65996C12.0373 1.10905 11.7641 0.571885 11.4613 0.0509523C11.451 0.0331389 11.4355 0.0188371 11.4167 0.00995533C11.398 0.00107354 11.377 -0.00196589 11.3565 0.00124283C9.0832 0.380603 6.90805 1.04775 4.87747 1.95168C4.86 1.95891 4.84519 1.97123 4.83503 1.987C0.70756 7.97174 -0.423781 13.8087 0.131942 19.5723C0.133488 19.5864 0.137931 19.6001 0.144999 19.6125C0.152068 19.6248 0.161614 19.6357 0.173058 19.6443C2.58215 21.3742 5.26918 22.692 8.12162 23.5425C8.14151 23.5486 8.16278 23.5485 8.18265 23.5425C8.20253 23.5364 8.22008 23.5246 8.23303 23.5085C8.84684 22.6989 9.39076 21.8399 9.85909 20.9406C9.86559 20.9283 9.86933 20.9148 9.87007 20.901C9.87081 20.8871 9.86852 20.8733 9.86337 20.8604C9.85821 20.8475 9.85031 20.8358 9.84019 20.8262C9.83006 20.8166 9.81797 20.8092 9.80471 20.8046C8.94792 20.4864 8.11776 20.1023 7.32186 19.656C7.30756 19.648 7.29551 19.6366 7.28679 19.6228C7.27807 19.609 7.27295 19.5933 7.2719 19.5771C7.27085 19.5609 7.27389 19.5447 7.28076 19.5299C7.28763 19.5152 7.2981 19.5023 7.31125 19.4925C7.47836 19.3709 7.64548 19.244 7.80464 19.1171C7.81896 19.1057 7.83622 19.0984 7.85448 19.0961C7.87275 19.0938 7.89131 19.0965 7.90809 19.104C13.1165 21.4116 18.7573 21.4116 23.9047 19.104C23.9215 19.0961 23.9403 19.093 23.9588 19.0951C23.9773 19.0972 23.9949 19.1043 24.0095 19.1158C24.1686 19.244 24.3344 19.3709 24.5029 19.4925C24.5161 19.5021 24.5268 19.5148 24.5339 19.5294C24.5409 19.5441 24.5442 19.5602 24.5435 19.5764C24.5427 19.5926 24.5378 19.6083 24.5293 19.6222C24.5209 19.6361 24.509 19.6478 24.4949 19.656C23.7018 20.106 22.8768 20.4867 22.0107 20.8033C21.9974 20.808 21.9853 20.8155 21.9752 20.8253C21.9651 20.835 21.9572 20.8468 21.952 20.8598C21.9469 20.8728 21.9446 20.8867 21.9453 20.9007C21.9461 20.9146 21.9498 20.9282 21.9563 20.9406C22.4338 21.8393 22.9803 22.6948 23.5811 23.5072C23.5936 23.5239 23.611 23.5363 23.6309 23.5429C23.6508 23.5494 23.6723 23.5498 23.6925 23.5438C26.5498 22.6957 29.2412 21.3773 31.653 19.6443C31.6648 19.6362 31.6746 19.6257 31.6819 19.6135C31.6893 19.6013 31.6939 19.5877 31.6954 19.5736C32.3586 12.91 30.584 7.12014 26.9884 1.98961C26.9795 1.97294 26.965 1.95994 26.9472 1.95299ZM10.6376 16.0626C9.06993 16.0626 7.77678 14.6642 7.77678 12.9492C7.77678 11.2329 9.04473 9.83584 10.6376 9.83584C12.2425 9.83584 13.5237 11.2447 13.4985 12.9492C13.4985 14.6655 12.2305 16.0626 10.6376 16.0626ZM21.2149 16.0626C19.6459 16.0626 18.3541 14.6642 18.3541 12.9492C18.3541 11.2329 19.6207 9.83584 21.2149 9.83584C22.8198 9.83584 24.101 11.2447 24.0758 12.9492C24.0758 14.6655 22.8211 16.0626 21.2149 16.0626Z" fill="#979797"/>
</svg>
