<svg width="1179" height="1179" viewBox="0 0 1179 1179" fill="none" xmlns="http://www.w3.org/2000/svg">
<circle cx="589.5" cy="589.5" r="589.5" fill="white"/>
<path d="M204.294 392C174.234 451.288 157 518.192 157 589.499C157 660.807 174.234 727.711 204.294 786.999C204.294 787.397 351 673.225 351 673.225C342.182 646.785 336.97 618.743 336.97 589.495C336.97 560.246 342.182 532.205 351 505.765L204.294 392Z" fill="#FBBC05"/>
<path d="M598 509V679.564H835.137C824.724 734.417 793.476 780.863 746.61 812.092L889.613 923C972.931 846.129 1021 733.219 1021 599.091C1021 567.861 1018.2 537.83 1012.99 509.005L598 509Z" fill="#4285F4"/>
<path d="M350.426 673L318.171 697.706L204 786.69C276.507 930.59 425.117 1030 597.37 1030C716.344 1030 816.09 990.717 889 923.378L745.989 812.345C706.73 838.8 656.656 854.835 597.37 854.835C482.801 854.835 385.46 777.474 350.606 673.255L350.426 673Z" fill="#34A853"/>
<path d="M597.257 324.495C662.133 324.495 719.8 346.932 765.854 390.205L892 263.995C815.51 192.676 716.197 149 597.257 149C425.056 149 276.485 247.966 204 392.209L350.569 506C385.408 401.824 482.723 324.495 597.257 324.495Z" fill="#EA4335"/>
</svg>
