<svg width="31" height="25" viewBox="0 0 31 25" fill="none" xmlns="http://www.w3.org/2000/svg">
<path d="M30.3222 2.8642C29.2147 3.34821 28.025 3.67524 26.7743 3.82306C28.0648 3.06145 29.0303 1.86277 29.4906 0.450678C28.2781 1.16098 26.9512 1.66096 25.5674 1.92888C24.6368 0.948903 23.4042 0.299361 22.061 0.0810947C20.7178 -0.137171 19.3392 0.0880507 18.139 0.721794C16.9389 1.35554 15.9845 2.36234 15.424 3.5859C14.8634 4.80946 14.7282 6.18131 15.0391 7.48847C12.5824 7.36681 10.179 6.73701 7.98506 5.63994C5.79108 4.54288 3.85549 3.00307 2.30392 1.12045C1.7734 2.02306 1.46835 3.06957 1.46835 4.18411C1.46776 5.18745 1.71827 6.17541 2.19766 7.06036C2.67705 7.9453 3.37049 8.69986 4.21646 9.25707C3.23536 9.22628 2.2759 8.96481 1.41795 8.49443V8.57292C1.41785 9.98013 1.91138 11.3441 2.8148 12.4332C3.71821 13.5224 4.97587 14.2698 6.37436 14.5485C5.46423 14.7914 4.51002 14.8272 3.58381 14.6532C3.97838 15.864 4.74698 16.9228 5.78199 17.6814C6.817 18.44 8.06662 18.8604 9.35591 18.8837C7.16728 20.5783 4.46433 21.4975 1.68189 21.4934C1.189 21.4935 0.69654 21.4652 0.207031 21.4084C3.03137 23.1995 6.31911 24.15 9.67687 24.1463C21.0433 24.1463 27.2571 14.8611 27.2571 6.80824C27.2571 6.54661 27.2505 6.28236 27.2385 6.02074C28.4472 5.15864 29.4905 4.09109 30.3195 2.86812L30.3222 2.8642Z" />
</svg>
