<svg width="572" height="606" viewBox="0 0 572 606" fill="none" xmlns="http://www.w3.org/2000/svg">
<circle cx="286" cy="320" r="286" fill="#222222"/>
<path d="M396.734 503C393.059 502.992 389.538 501.52 386.939 498.907C384.34 496.293 382.877 492.751 382.869 489.055V448.431C382.869 444.733 381.408 441.185 378.808 438.57C376.208 435.955 372.68 434.486 369.003 434.486C365.326 434.486 361.799 435.955 359.199 438.57C356.598 441.185 355.138 444.733 355.138 448.431V467.715C355.138 471.414 353.677 474.961 351.077 477.576C348.477 480.191 344.95 481.661 341.273 481.661C337.595 481.661 334.068 480.191 331.468 477.576C328.868 474.961 327.407 471.414 327.407 467.715V448.431C327.407 444.733 325.946 441.185 323.346 438.57C320.745 435.955 317.219 434.486 313.541 434.486C309.864 434.486 306.337 435.955 303.737 438.57C301.137 441.185 299.676 444.733 299.676 448.431V453.679C299.676 457.38 298.214 460.93 295.612 463.547C293.009 466.165 289.48 467.635 285.8 467.635C282.12 467.635 278.591 466.165 275.988 463.547C273.386 460.93 271.924 457.38 271.924 453.679V448.431C271.924 444.733 270.463 441.185 267.863 438.57C265.262 435.955 261.736 434.486 258.059 434.486C254.381 434.486 250.855 435.955 248.254 438.57C245.654 441.185 244.193 444.733 244.193 448.431V467.715C244.193 471.414 242.732 474.961 240.132 477.576C237.531 480.191 234.005 481.661 230.327 481.661C226.65 481.661 223.123 480.191 220.523 477.576C217.923 474.961 216.462 471.414 216.462 467.715V448.431C216.462 444.733 215.001 441.185 212.401 438.57C209.801 435.955 206.274 434.486 202.596 434.486C198.919 434.486 195.392 435.955 192.792 438.57C190.192 441.185 188.731 444.733 188.731 448.431V489.055C188.731 492.753 187.27 496.3 184.67 498.915C182.07 501.53 178.543 503 174.865 503C171.188 503 167.661 501.53 165.061 498.915C162.461 496.3 161 492.753 161 489.055V258.802C161.669 230.227 171.996 202.733 190.281 180.851C208.565 158.969 233.715 144.004 261.587 138.422C289.459 132.84 318.39 136.973 343.614 150.141C368.837 163.309 388.849 184.726 400.352 210.863C407.014 225.978 410.63 242.272 410.991 258.802C411.015 258.973 410.989 259.148 410.917 259.306C410.845 259.463 410.73 259.596 410.584 259.69V489.045C410.581 492.741 409.122 496.285 406.526 498.901C403.93 501.516 400.409 502.991 396.734 503ZM271.77 295.394C268.249 295.394 266.821 296.763 266.821 300.15C266.821 308.381 275.863 315.074 286.995 315.074C298.127 315.074 307.139 308.381 307.139 300.15C307.139 296.769 305.71 295.399 302.199 295.399C300.32 295.466 298.448 295.658 296.595 295.972L296.42 296.003C293.305 296.516 290.155 296.805 286.998 296.866C283.833 296.805 280.676 296.517 277.552 296.003C275.641 295.666 273.709 295.463 271.77 295.394ZM332.127 227.634C319.853 227.634 309.876 239.127 309.876 253.26C309.876 267.393 319.853 278.865 332.127 278.865C344.401 278.865 354.342 267.378 354.342 253.26C354.342 239.142 344.38 227.634 332.127 227.634ZM239.877 227.634C227.633 227.634 217.662 239.127 217.662 253.26C217.662 267.393 227.633 278.865 239.877 278.865C252.12 278.865 262.098 267.378 262.098 253.26C262.098 239.142 252.13 227.634 239.877 227.634Z" fill="url(#paint0_linear_1721_13300)"/>
<defs>
<linearGradient id="paint0_linear_1721_13300" x1="369" y1="175" x2="176" y2="426.5" gradientUnits="userSpaceOnUse">
<stop stop-color="#B6509E"/>
<stop offset="1" stop-color="#2EBAC6"/>
</linearGradient>
</defs>
</svg>
