<svg width="327" height="327" viewBox="0 0 327 327" fill="none" xmlns="http://www.w3.org/2000/svg">
<path d="M163.5 327C253.801 327 327 253.801 327 163.5C327 73.199 253.801 0 163.5 0C73.199 0 0 73.199 0 163.5C0 253.801 73.199 327 163.5 327Z" fill="#222222"/>
<path fill-rule="evenodd" clip-rule="evenodd" d="M94.4155 218.311C89.5195 215.322 86.5229 210.013 86.5229 204.295V172.375C86.5229 168.586 89.6177 165.515 93.4167 165.531C94.6284 165.531 95.8237 165.858 96.8717 166.462L169.067 208.461C173.292 210.911 175.896 215.42 175.896 220.304V253.367C175.912 257.909 172.228 261.6 167.675 261.6C166.153 261.6 164.646 261.176 163.353 260.392L94.4155 218.311ZM202.029 157.722C206.254 160.173 208.841 164.698 208.858 169.566V236.672C208.858 238.649 207.793 240.478 206.058 241.442L190.256 250.312C190.06 250.427 189.847 250.509 189.617 250.574V213.312C189.617 208.493 187.079 204.017 182.92 201.534L119.518 163.701V121.637C119.518 117.847 122.613 114.776 126.411 114.793C127.623 114.793 128.819 115.119 129.867 115.724L202.029 157.722ZM233.632 108.16C237.873 110.611 240.477 115.136 240.477 120.02V218.033C240.461 220.043 239.347 221.889 237.579 222.852L222.596 230.922V162.688C222.596 157.869 220.058 153.41 215.931 150.927L151.121 112.146V72.2547C151.121 71.0459 151.448 69.8534 152.038 68.8079C153.954 65.5408 158.162 64.43 161.437 66.3249L233.632 108.16Z" fill="#00D395"/>
</svg>
