<svg width="284" height="284" viewBox="0 0 284 284" fill="none" xmlns="http://www.w3.org/2000/svg">
<g clip-path="url(#clip0_1716_13267)">
<g filter="url(#filter0_d_1716_13267)">
<path d="M141.73 283.46C122.6 283.46 104.04 279.71 86.56 272.32C69.68 265.18 54.53 254.96 41.51 241.95C28.5 228.94 18.28 213.78 11.14 196.9C3.75 179.42 0 160.86 0 141.73C0 122.6 3.75 104.04 11.14 86.56C18.28 69.68 28.5 54.53 41.51 41.51C54.53 28.5 69.68 18.28 86.56 11.14C104.04 3.75 122.6 0 141.73 0C160.86 0 179.42 3.75 196.9 11.14C213.78 18.28 228.93 28.5 241.95 41.51C254.96 54.52 265.18 69.68 272.32 86.56C279.71 104.04 283.46 122.6 283.46 141.73C283.46 160.86 279.71 179.42 272.32 196.9C265.18 213.78 254.96 228.93 241.95 241.95C228.94 254.96 213.78 265.18 196.9 272.32C179.42 279.72 160.86 283.46 141.73 283.46Z" fill="#222222"/>
<path d="M141.73 275.95C215.858 275.95 275.95 215.857 275.95 141.73C275.95 67.6021 215.858 7.50977 141.73 7.50977C67.6023 7.50977 7.51001 67.6021 7.51001 141.73C7.51001 215.857 67.6023 275.95 141.73 275.95Z" fill="#222222"/>
<path d="M212.43 141.731C212.43 127.351 208.11 113.971 200.71 102.791L222.66 80.8408L202.92 61.1008L181.03 82.9908C169.79 75.4408 156.27 71.0308 141.74 71.0308C127.36 71.0308 113.98 75.3508 102.8 82.7508L80.84 60.8008L61.1 80.5408L82.99 102.431C75.44 113.671 71.03 127.191 71.03 141.721C71.03 156.101 75.35 169.481 82.75 180.661L60.8 202.621L80.5401 222.361L102.43 200.471C113.67 208.021 127.19 212.431 141.72 212.431C156.1 212.431 169.48 208.111 180.66 200.711L202.62 222.671L222.36 202.931L200.47 181.041C208.02 169.781 212.43 156.261 212.43 141.731ZM98.96 141.731C98.96 118.141 118.15 98.9508 141.74 98.9508C165.33 98.9508 184.52 118.141 184.52 141.731C184.52 165.321 165.33 184.511 141.74 184.511C118.15 184.511 98.96 165.321 98.96 141.731Z" fill="white"/>
</g>
</g>
<defs>
<filter id="filter0_d_1716_13267" x="-4" y="0" width="291.46" height="291.461" filterUnits="userSpaceOnUse" color-interpolation-filters="sRGB">
<feFlood flood-opacity="0" result="BackgroundImageFix"/>
<feColorMatrix in="SourceAlpha" type="matrix" values="0 0 0 0 0 0 0 0 0 0 0 0 0 0 0 0 0 0 127 0" result="hardAlpha"/>
<feOffset dy="4"/>
<feGaussianBlur stdDeviation="2"/>
<feComposite in2="hardAlpha" operator="out"/>
<feColorMatrix type="matrix" values="0 0 0 0 0 0 0 0 0 0 0 0 0 0 0 0 0 0 0.25 0"/>
<feBlend mode="normal" in2="BackgroundImageFix" result="effect1_dropShadow_1716_13267"/>
<feBlend mode="normal" in="SourceGraphic" in2="effect1_dropShadow_1716_13267" result="shape"/>
</filter>
<clipPath id="clip0_1716_13267">
<rect width="283.46" height="283.46" fill="white"/>
</clipPath>
</defs>
</svg>
