<svg width="406" height="406" viewBox="0 0 406 406" fill="none" xmlns="http://www.w3.org/2000/svg">
<circle cx="203" cy="203" r="203" fill="#222222"/>
<path fill-rule="evenodd" clip-rule="evenodd" d="M206.051 315.627C164.075 315.627 128.311 289.172 114.676 252.1C129.849 287.427 167.213 312.775 206.051 312.775C244.887 312.775 282.534 287.711 297.422 252.1C283.792 289.172 248.027 315.627 206.051 315.627ZM299.813 182.289C295.275 171.384 299.94 158.976 310.248 153.608C300.596 138.776 288.058 126.513 273.707 117.254C269.745 124.792 261.959 129.293 253.765 129.359C272.756 146.397 298.593 174.32 298.593 216.219C298.593 267.081 257.159 308.313 206.051 308.313C154.939 308.313 113.507 267.081 113.507 216.219C113.507 174.32 139.347 146.397 158.336 129.359C150.139 129.293 142.353 124.785 138.389 117.25C123.484 126.855 111.161 139.33 101.861 153.611C112.165 158.978 116.824 171.39 112.287 182.289C107.752 193.192 95.6402 198.68 84.5386 195.232C80.9649 211.873 80.8145 229.366 84.5264 246.644C95.63 243.188 107.75 248.683 112.287 259.588C116.826 270.493 112.161 282.899 101.853 288.269C111.506 303.101 124.041 315.365 138.391 324.62C143.787 314.366 156.258 309.728 167.213 314.242C178.166 318.759 183.683 330.812 180.217 341.859C196.94 345.415 214.521 345.564 231.883 341.87C228.409 330.823 233.932 318.76 244.888 314.244C255.848 309.727 268.316 314.371 273.711 324.629C288.616 315.022 300.941 302.547 310.24 288.269C299.938 282.898 295.275 270.487 299.813 259.588C304.348 248.686 316.462 243.196 327.562 246.644C331.135 230.006 331.286 212.51 327.574 195.232C316.468 198.688 304.35 193.194 299.813 182.289Z" fill="white"/>
<path fill-rule="evenodd" clip-rule="evenodd" d="M170.401 95.9375C158.142 117.445 165.527 133.367 170.041 149.635C187.071 211.009 117.556 226.546 144.579 161.574C133.881 179.029 124.4 192.356 124.4 222.862C124.4 253.761 140.752 280.695 164.968 294.854C159.509 260.983 189.78 255.496 203.977 229.845C229.74 183.287 157.91 142.792 170.401 95.9375Z" fill="#F17300"/>
<path fill-rule="evenodd" clip-rule="evenodd" d="M221.841 120.892C200.386 97.1641 182.495 74.1591 205.138 32C189.76 46.0768 160.337 99.5947 184.793 135.208C206.481 166.792 225.156 193.799 213.761 225.689C203.696 253.853 166.215 267.236 175.592 297.942C226.909 314.93 280.6 275.965 280.6 219.948C280.6 169.299 232.57 132.758 221.841 120.892Z" fill="#E03597"/>
<path fill-rule="evenodd" clip-rule="evenodd" d="M234.312 53.3125C203.392 86.7853 217.176 95.1 244.947 124.354C247.598 98.0808 214.591 83.4089 234.312 53.3125Z" fill="#F17300"/>
<path d="M281.268 277.852C280.555 280.215 279.753 281.945 277.889 283.593C277.285 284.126 276.18 284.726 275.885 285.537C275.376 286.936 274.003 287.98 273.194 289.215C271.898 291.193 269.912 293.323 267.542 294C266.526 294.29 265.049 295.533 266.734 293.88C269.712 290.959 273.045 288.565 276.184 285.836C276.346 285.696 278.885 283.264 278.232 283.264C275.733 283.264 273.191 284.569 271.848 286.584C271.31 287.391 270.739 288.252 270.113 288.991C269.165 290.112 270.469 288.95 270.891 288.617C274.831 285.507 278.421 281.724 281.567 277.822C282.597 276.544 283.764 274.498 285.17 273.561C287.19 272.214 289.181 269.955 290.089 267.684C290.613 266.376 291.263 264.886 291.495 263.438C291.702 262.141 292.572 261.321 293.05 260.149C293.24 259.682 293.784 259.629 294.052 259.147C294.704 257.973 295.432 256.759 296.279 255.723C296.75 255.148 297.012 253.788 297.431 253.076C298 252.109 298.501 250.929 299.3 250.131" stroke="white" stroke-width="5" stroke-linecap="round"/>
<path d="M266.196 295.078C264.377 295.078 262.558 295.078 260.739 295.078C259.597 295.078 259.105 296.415 258.406 297.201C257.328 298.414 256.121 299.547 254.773 300.446C251.694 302.498 261.644 297.642 265.224 296.708C267.512 296.111 264.965 296.804 264.013 297.156C259.643 298.773 255.268 300.129 250.84 301.537C249.308 302.025 247.55 302.089 246.16 302.883C245.644 303.178 245.035 304.398 244.531 304.902C243.977 305.455 242.878 305.615 242.437 306.232C242.336 306.375 244.876 306.257 245.069 306.232C246.618 306.035 248.112 305.59 249.644 305.305C251.801 304.904 253.978 305.026 256.103 304.632C256.785 304.506 259.389 304.229 257.24 304.229C254.364 304.229 251.488 304.229 248.612 304.229C247.564 304.229 246.081 304.701 245.218 305.305C244.166 306.042 242.834 306.433 241.645 306.92C240.522 307.379 239.52 308.083 238.415 308.535C235.242 309.833 232.053 311.133 228.846 312.243C227.455 312.724 225.934 313.256 224.48 313.589C221.903 314.178 219.052 313.379 216.466 313.379C215.326 313.379 214.215 313.379 213.176 313.379C209.767 313.379 219.994 313.379 223.403 313.379C224.546 313.379 225.756 313.143 226.842 312.781C226.999 312.729 228.53 312.082 227.71 312.034C226.956 311.989 224.237 310.905 223.942 311.495" stroke="white" stroke-width="5" stroke-linecap="round"/>
<path d="M113.058 251.746C113.058 253.936 112.685 256.709 114.733 258.205C114.902 258.329 116.5 259.899 116.273 258.878C116.001 257.655 114.635 256.119 114 254.991C113.067 253.332 114.168 254.669 114.673 255.454C115.446 256.657 116.05 257.97 116.691 259.252C117.576 261.022 118.876 262.676 119.786 264.395C120.926 266.548 121.974 268.875 123.285 270.914C123.918 271.899 124.207 273.093 125.05 273.935C125.896 274.781 126.689 275.687 127.457 276.626C128.032 277.329 128.557 278.01 129.206 278.66C129.828 279.281 130.384 279.99 129.161 279.317C126.877 278.061 122.966 277.215 121.67 274.623" stroke="white" stroke-width="5" stroke-linecap="round"/>
<path d="M123.285 274.622C123.285 275.986 122.985 277.322 124.033 278.33C125.153 279.409 127.456 279.542 128.802 278.794C130.359 277.929 125.34 274.645 124.481 274.084C123.993 273.764 122.455 272.942 122.911 273.306C123.351 273.658 123.883 274.666 124.212 275.145C124.335 275.325 124.958 276.656 125.109 276.656C125.4 276.656 124.824 276.01 124.75 275.968C124.231 275.671 123.019 274.01 123.285 274.144C124.263 274.633 121.624 274.908 122.612 275.699C123.59 276.48 124.626 277.313 125.977 277.313" stroke="white" stroke-width="5" stroke-linecap="round"/>
<path d="M177.112 308.803C177.364 309.307 178.808 309.074 179.221 309.087C181.279 309.152 183.204 309.557 185.186 310.089C189.779 311.321 194.18 313.095 198.778 314.305C205.163 315.986 211.347 316.069 217.886 316.069C219.031 316.069 220.072 315.886 221.191 315.8C221.726 315.759 218 314.25 217.348 314.066C215.692 313.599 213.976 313.741 212.309 313.438C211.121 313.222 209.812 313.109 208.601 313.109C205.98 313.109 203.358 313.109 200.736 313.109C196.083 313.109 191.485 312.032 186.861 312.032C185.091 312.032 183.41 311.763 181.628 311.763C179.485 311.763 177.492 310.418 175.498 310.418" stroke="white" stroke-width="5" stroke-linecap="round"/>
<path d="M128.937 278.93C130.172 280.165 131.219 281.445 132.585 282.563C133.496 283.308 134.695 283.821 135.665 284.522C137.022 285.501 138.496 286.601 139.912 287.482C142.455 289.065 144.686 290.654 146.984 292.521C149.385 294.471 152.587 295.362 155.252 296.902C157.15 297.998 159.267 298.701 161.099 299.922C162.706 300.993 164.283 302.283 166.078 303.017C168.43 303.98 170.651 305.166 173.015 306.112C174.211 306.59 175.429 307.035 176.574 307.608C176.946 307.794 177.897 308.804 176.948 308.804C174.451 308.804 171.954 308.804 169.457 308.804C168.123 308.804 167.211 307.89 166.078 307.323C162.749 305.659 159.573 304.019 155.97 302.943C152.058 301.773 147.996 300.9 144.158 299.519C143.183 299.168 137.308 295.335 137.878 294.868C138.287 294.534 139.891 294.645 140.39 294.599C141.364 294.51 142.344 294.54 143.321 294.54C144.238 294.54 144.995 294.878 145.893 295.078C148.128 295.575 150.061 297.588 152.083 298.636C153.587 299.416 155.18 299.841 156.658 300.58C156.87 300.686 158.162 301.117 158.362 300.984C158.535 300.869 158.015 300.752 157.824 300.67C157.07 300.346 156.296 300.069 155.537 299.758C152.957 298.702 150.618 297.367 148.285 295.855C146.926 294.975 144.978 294.176 144.218 292.656C143.146 290.512 140.51 291.31 138.895 290.233" stroke="white" stroke-width="5" stroke-linecap="round"/>
</svg>
