<svg width="369" height="370" viewBox="0 0 369 370" fill="none" xmlns="http://www.w3.org/2000/svg">
<ellipse cx="184.5" cy="185" rx="184.5" ry="185" fill="#222222"/>
<mask id="mask0_2089_89" style="mask-type:luminance" maskUnits="userSpaceOnUse" x="74" y="208" width="99" height="116">
<path d="M168.426 322.227L74.8652 212.828C73.1106 210.781 75.49 207.822 77.8494 209.119L140.761 243.431C143.725 245.051 146.023 247.707 147.193 250.889L172.519 319.794C173.446 322.328 170.179 324.275 168.426 322.227Z" fill="white"/>
</mask>
<g mask="url(#mask0_2089_89)">
<path d="M168.426 322.227L74.8652 212.828C73.1106 210.781 75.49 207.822 77.8494 209.119L140.761 243.431C143.725 245.051 146.023 247.707 147.193 250.889L172.519 319.794C173.446 322.328 170.179 324.275 168.426 322.227Z" fill="url(#paint0_linear_2089_89)"/>
</g>
<mask id="mask1_2089_89" style="mask-type:luminance" maskUnits="userSpaceOnUse" x="155" y="91" width="51" height="208">
<path d="M181.935 297.07L156.126 168.821C155.743 166.916 156.126 164.909 157.154 163.268L202.2 92.4161C203.107 90.9968 205.306 91.7471 205.144 93.4498L185.101 296.906C184.92 298.751 182.299 298.873 181.935 297.07Z" fill="white"/>
</mask>
<g mask="url(#mask1_2089_89)">
<path d="M181.935 297.07L156.126 168.821C155.743 166.916 156.126 164.909 157.154 163.268L202.2 92.4161C203.107 90.9968 205.306 91.7471 205.144 93.4498L185.101 296.906C184.92 298.751 182.299 298.873 181.935 297.07Z" fill="url(#paint1_linear_2089_89)"/>
</g>
<mask id="mask2_2089_89" style="mask-type:luminance" maskUnits="userSpaceOnUse" x="203" y="183" width="93" height="80">
<path d="M204.277 259.299L253.8 186.885C255.493 184.412 258.437 183.136 261.402 183.582L293.078 188.406C295.115 188.71 295.801 191.323 294.188 192.601L206.757 261.65C205.205 262.866 203.168 260.94 204.277 259.319V259.299Z" fill="white"/>
</mask>
<g mask="url(#mask2_2089_89)">
<path d="M204.277 259.299L253.8 186.885C255.493 184.412 258.437 183.136 261.402 183.582L293.078 188.406C295.115 188.71 295.801 191.323 294.188 192.601L206.757 261.65C205.205 262.866 203.168 260.94 204.277 259.319V259.299Z" fill="url(#paint2_linear_2089_89)"/>
</g>
<mask id="mask3_2089_89" style="mask-type:luminance" maskUnits="userSpaceOnUse" x="211" y="47" width="52" height="165">
<path d="M211.677 209.641L237.003 48.7028C237.266 47.0418 239.564 46.8386 240.109 48.4403L262.571 114.184C263.237 116.151 263.076 118.298 262.108 120.143L214.682 210.654C213.835 212.256 211.395 211.445 211.677 209.66V209.641Z" fill="white"/>
</mask>
<g mask="url(#mask3_2089_89)">
<path d="M211.677 209.641L237.003 48.7028C237.266 47.0418 239.564 46.8386 240.109 48.4403L262.571 114.184C263.237 116.151 263.076 118.298 262.108 120.143L214.682 210.654C213.835 212.256 211.395 211.445 211.677 209.66V209.641Z" fill="url(#paint3_linear_2089_89)"/>
</g>
<mask id="mask4_2089_89" style="mask-type:luminance" maskUnits="userSpaceOnUse" x="103" y="136" width="45" height="86">
<path d="M103.115 177.885L108.781 137.453C109.023 135.79 111.281 135.487 111.946 137.028L146.89 218.884C147.596 220.546 145.539 221.985 144.229 220.749L105.232 183.965C103.578 182.404 102.772 180.113 103.094 177.865L103.115 177.885Z" fill="white"/>
</mask>
<g mask="url(#mask4_2089_89)">
<path d="M103.115 177.885L108.781 137.453C109.023 135.79 111.281 135.487 111.946 137.028L146.89 218.884C147.596 220.546 145.539 221.985 144.229 220.749L105.232 183.965C103.578 182.404 102.772 180.113 103.094 177.865L103.115 177.885Z" fill="url(#paint4_linear_2089_89)"/>
</g>
<defs>
<linearGradient id="paint0_linear_2089_89" x1="70.0321" y1="-356.373" x2="134.752" y2="393.286" gradientUnits="userSpaceOnUse">
<stop stop-color="#F58013"/>
<stop offset="1" stop-color="#F19D19"/>
</linearGradient>
<linearGradient id="paint1_linear_2089_89" x1="179.769" y1="-38.5096" x2="181.579" y2="342.707" gradientUnits="userSpaceOnUse">
<stop stop-color="#F58013"/>
<stop offset="1" stop-color="#F19D19"/>
</linearGradient>
<linearGradient id="paint2_linear_2089_89" x1="225.202" y1="-314.179" x2="257.085" y2="389.56" gradientUnits="userSpaceOnUse">
<stop stop-color="#F58013"/>
<stop offset="1" stop-color="#F19D19"/>
</linearGradient>
<linearGradient id="paint3_linear_2089_89" x1="236.096" y1="36.0695" x2="240.688" y2="513.217" gradientUnits="userSpaceOnUse">
<stop stop-color="#F58013"/>
<stop offset="1" stop-color="#F19D19"/>
</linearGradient>
<linearGradient id="paint4_linear_2089_89" x1="76.2402" y1="93.1709" x2="186.653" y2="323.587" gradientUnits="userSpaceOnUse">
<stop stop-color="#F58013"/>
<stop offset="1" stop-color="#F19D19"/>
</linearGradient>
</defs>
</svg>
