<svg width="482" height="482" viewBox="0 0 482 482" fill="none" xmlns="http://www.w3.org/2000/svg">
<circle cx="241" cy="241" r="241" fill="#222222"/>
<mask id="mask0_1801_13513" style="mask-type:luminance" maskUnits="userSpaceOnUse" x="87" y="67" width="308" height="347">
<path d="M87 67H394.643V414H87V67Z" fill="white"/>
</mask>
<g mask="url(#mask0_1801_13513)">
<path d="M116.9 414.001C114.957 414.001 113.014 413.756 111.133 413.266C109.389 412.823 107.742 412.062 106.275 411.021L106.102 410.878L105.897 410.735C104.289 409.408 103.102 407.642 102.482 405.653C102.025 404.4 101.74 403.092 101.633 401.764V401.55C101.583 400.438 101.56 399.325 101.561 398.212V339.467C101.542 338.015 101.61 336.564 101.766 335.12V334.691C102.062 332.977 102.656 331.323 103.535 329.823C104.967 327.292 107.349 325.434 110.151 324.628C112.084 324.036 114.446 323.75 117.289 323.75C119.405 323.679 121.512 323.924 123.547 324.485C125.285 324.924 126.921 325.679 128.373 326.7L128.752 326.975C130.378 328.302 131.574 330.068 132.208 332.068C132.627 333.334 132.903 334.66 133.016 335.997V336.171C133.088 336.977 133.088 338.059 133.088 339.498V385.588H155.492C156.822 385.557 158.151 385.629 159.47 385.792L159.859 385.874C161.26 386.129 162.62 386.588 163.898 387.241C165.094 387.873 166.15 388.739 167.002 389.787C167.854 390.836 168.485 392.046 168.857 393.344L168.929 393.589C169.914 397.623 169.914 401.833 168.929 405.867C168.58 407.201 167.959 408.45 167.106 409.535C166.253 410.62 165.185 411.518 163.969 412.174C162.628 412.935 161.165 413.456 159.644 413.715L159.296 413.787C157.999 413.929 156.695 414.001 155.39 414.001H116.9ZM114.405 400.948C115.305 401.162 116.225 401.274 117.145 401.264H156.903C156.948 400.847 156.959 400.427 156.934 400.009V399.621C156.959 399.213 156.949 398.803 156.903 398.396H120.336V339.498C120.336 338.12 120.336 337.355 120.305 336.926C120.305 336.866 120.291 336.807 120.264 336.753C119.367 336.541 118.446 336.448 117.524 336.477H117.381C116.391 336.455 115.402 336.523 114.425 336.681C114.354 337.528 114.323 338.437 114.323 339.314V398.202C114.323 399.57 114.354 400.346 114.354 400.764C114.354 401.193 114.395 400.866 114.395 400.937L114.405 400.948Z" fill="black"/>
<path d="M179.134 414.001C177.191 414.001 175.269 413.756 173.408 413.266C171.66 412.825 170.01 412.063 168.54 411.021L168.336 410.878L168.162 410.735C166.543 409.417 165.354 407.648 164.746 405.653C164.293 404.399 164.008 403.092 163.898 401.764V401.55C163.826 400.774 163.826 399.652 163.826 398.213V339.427C163.826 333.997 165.094 330.099 167.732 327.506C170.371 324.914 174.349 323.72 179.87 323.72H221.592C223.05 323.701 224.508 323.769 225.958 323.924H226.377C228.095 324.23 229.752 324.822 231.265 325.679C233.812 327.108 235.683 329.476 236.481 332.272C237.074 334.242 237.35 336.559 237.35 339.396C237.418 341.487 237.184 343.577 236.654 345.601C236.212 347.342 235.449 348.986 234.405 350.449L234.262 350.653L234.088 350.827C232.764 352.436 231.003 353.631 229.016 354.266C227.751 354.693 226.439 354.967 225.109 355.083H224.936C224.158 355.144 223.146 355.144 221.561 355.144H219.731C222.216 356.593 224.046 358.94 224.833 361.706C225.426 363.635 225.713 365.952 225.713 368.789C225.759 370.895 225.512 372.997 224.976 375.035C224.537 376.77 223.78 378.403 222.757 379.873L222.584 380.077L222.44 380.26C221.704 381.138 220.835 381.893 219.874 382.506H221.592C223.054 382.475 224.506 382.536 225.958 382.679L226.377 382.751C228.095 383.036 229.752 383.618 231.265 384.465C233.822 385.904 235.683 388.292 236.481 391.099C237.074 393.028 237.35 395.345 237.35 398.182C237.421 400.284 237.186 402.387 236.654 404.428C236.204 406.163 235.448 407.786 234.405 409.225L234.262 409.439L234.118 409.623C232.785 411.234 231.013 412.425 229.016 413.052C227.751 413.478 226.439 413.752 225.109 413.868H224.936L221.561 413.93H179.124V414.001H179.134ZM176.68 400.958C177.559 401.162 178.47 401.264 179.38 401.264H224.302C224.506 400.376 224.619 399.458 224.619 398.529V398.355C224.658 397.371 224.589 396.386 224.414 395.416C223.547 395.339 222.676 395.315 221.806 395.345H182.611V371.871H212.368L212.654 371.81C212.87 370.925 212.963 370.015 212.93 369.105V368.963C212.953 367.979 212.885 366.995 212.726 366.023C211.847 365.918 210.962 365.884 210.077 365.921H182.621V342.448H224.302C224.513 341.562 224.619 340.654 224.619 339.743V339.57C224.66 338.585 224.591 337.599 224.414 336.63C223.547 336.562 222.677 336.528 221.806 336.528H179.768C178.785 336.493 177.802 336.586 176.844 336.804C176.661 337.69 176.579 338.594 176.598 339.498V398.213C176.598 399.59 176.598 400.356 176.639 400.774C176.639 400.835 176.639 400.897 176.67 400.958H176.68Z" fill="black"/>
<path d="M296.383 413.97H296.353C292.62 413.97 290.115 413.653 288.264 412.878C286.125 412.048 284.259 410.642 282.875 408.816L262.965 382.403V398.253C262.986 399.732 262.914 401.212 262.761 402.672L262.679 403.131C262.393 404.808 261.812 406.422 260.961 407.897C259.509 410.418 257.147 412.286 254.345 413.092C252.008 413.732 249.59 414.028 247.167 413.97H247.136C244.283 413.97 241.962 413.684 240.029 413.051C237.253 412.242 234.904 410.381 233.484 407.866C232.618 406.322 232.036 404.635 231.767 402.886V402.57C231.589 401.104 231.517 399.627 231.552 398.15V339.263C231.52 337.737 231.613 336.211 231.828 334.7L231.899 334.272C232.227 332.731 232.789 331.241 233.556 329.853C234.507 328.138 236.409 325.893 240.06 324.77C242.41 324.118 244.84 323.799 247.279 323.821C249.508 323.79 251.727 324.066 253.885 324.637L254.1 324.699C256.349 325.403 257.934 326.281 259.161 327.434L259.264 327.536C260.153 328.383 260.961 329.302 261.697 330.281L262.372 331.088C269.653 340.977 275.809 349.254 280.728 355.888V339.252C280.7 337.73 280.796 336.208 281.014 334.7L281.086 334.272C281.409 332.725 281.964 331.235 282.732 329.853C284.152 327.36 286.506 325.532 289.276 324.77C291.219 324.168 293.602 323.852 296.496 323.821C298.572 323.79 300.637 324.025 302.652 324.556C304.441 324.984 306.129 325.76 307.611 326.842L307.857 327.046L308.061 327.22C309.564 328.557 310.679 330.271 311.303 332.169C311.73 333.431 312.002 334.741 312.111 336.068V336.272C312.141 337.089 312.182 338.211 312.182 339.64V398.253C312.182 399.722 312.111 401.202 311.978 402.672L311.896 403.131C311.61 404.808 311.028 406.422 310.178 407.897C308.726 410.418 306.364 412.286 303.562 413.092C301.225 413.732 298.806 414.028 296.383 413.97ZM293.009 401.059C295.102 401.303 297.218 401.29 299.308 401.018C299.38 400.151 299.41 399.273 299.41 398.426V339.64C299.41 338.242 299.38 337.466 299.38 337.089C299.349 337.021 299.335 336.948 299.339 336.874C298.464 336.666 297.569 336.56 296.67 336.558H296.598C295.576 336.558 294.573 336.64 293.571 336.803C293.501 337.549 293.467 338.299 293.469 339.048V393.619L282.037 378.82C271.936 365.565 261.965 352.212 252.126 338.762L251.605 338.058L250.684 337.007L250.337 336.905C249.418 336.667 248.473 336.55 247.525 336.558H247.381C246.381 336.558 245.382 336.639 244.395 336.803C244.308 337.548 244.274 338.298 244.293 339.048V398.283C244.293 399.202 244.324 400.12 244.395 401.018C245.295 401.151 246.216 401.202 247.136 401.202H247.167C248.148 401.222 249.13 401.151 250.091 400.998C250.163 400.11 250.193 399.232 250.193 398.395V344.835L261.626 359.633C266.626 366.094 277.169 380.015 293.009 401.059Z" fill="black"/>
<path d="M323.083 413.858C320.919 413.862 318.764 413.566 316.681 412.98H316.477C313.806 412.217 311.521 410.479 310.076 408.112C309.098 406.551 308.451 404.808 308.174 402.988V402.784C307.986 401.223 307.904 399.651 307.928 398.079V339.365C307.897 337.885 307.959 336.405 308.102 334.935V334.446C308.409 332.782 309.002 331.18 309.861 329.71C310.565 328.452 311.512 327.345 312.648 326.455C313.783 325.565 315.085 324.909 316.477 324.525C318.798 323.872 321.201 323.556 323.615 323.607H323.686L333.462 323.678H343.279C355.171 323.678 365.755 327.995 374.733 336.487C383.701 344.968 388.375 355.776 388.375 368.329C388.375 380.882 383.916 391.517 375.153 400.427C366.389 409.336 355.519 413.827 342.962 413.827H323.083V413.858ZM320.762 400.886C321.631 401.09 322.52 401.172 323.4 401.131H343.003C352.104 401.131 359.671 397.967 366.072 391.517C369.163 388.513 371.607 384.91 373.252 380.93C374.898 376.949 375.712 372.675 375.643 368.37C375.643 359.317 372.473 351.918 365.97 345.743C359.466 339.569 351.93 336.456 343.32 336.456H333.401L323.686 336.374C322.697 336.356 321.707 336.428 320.731 336.589C320.649 337.466 320.629 338.344 320.659 339.222V398.181C320.639 399.079 320.68 399.988 320.762 400.886ZM343.32 395.171H326.641V342.447H343.207C350.283 342.447 356.501 344.968 361.716 349.989C366.921 355 369.631 361.389 369.631 368.788C369.631 376.188 366.89 382.821 361.43 387.833C355.979 392.844 350.038 395.171 343.32 395.171ZM339.413 382.434H343.32C346.766 382.434 349.864 381.137 352.779 378.464C355.703 375.81 356.869 372.82 356.869 368.788C356.869 364.757 355.591 361.808 352.85 359.144C351.597 357.863 350.096 356.851 348.438 356.169C346.78 355.486 345 355.148 343.207 355.174H339.413V382.434Z" fill="black"/>
<path d="M126.747 391.936H155.594C156.647 391.936 157.691 391.987 158.734 392.109C159.522 392.26 160.282 392.536 160.983 392.926C161.435 393.158 161.832 393.484 162.147 393.882C162.463 394.28 162.69 394.74 162.814 395.232C163.202 396.722 163.376 398.263 163.335 399.794C163.376 401.294 163.192 402.795 162.814 404.254C162.679 404.752 162.443 405.217 162.122 405.621C161.8 406.025 161.398 406.359 160.942 406.601C160.196 407.017 159.388 407.314 158.549 407.479C157.535 407.593 156.513 407.641 155.492 407.622H117.288C115.748 407.653 114.21 407.475 112.717 407.091C111.729 406.845 110.796 406.416 109.967 405.826C109.288 405.255 108.791 404.5 108.535 403.652C108.254 402.872 108.076 402.059 108.003 401.233C107.962 400.57 107.962 399.549 107.962 398.212V339.396C107.942 338.171 107.993 336.957 108.106 335.752C108.287 334.766 108.632 333.817 109.128 332.946C109.429 332.403 109.837 331.928 110.328 331.547C110.818 331.166 111.38 330.889 111.981 330.731C113.311 330.312 115.151 330.098 117.401 330.098C118.935 330.068 120.469 330.241 121.972 330.629C122.953 330.885 123.881 331.313 124.712 331.894C125.406 332.451 125.907 333.212 126.144 334.068C126.424 334.849 126.607 335.661 126.686 336.487C126.717 337.191 126.747 338.171 126.747 339.498V391.936ZM188.981 388.894H221.663C222.89 388.874 224.117 388.935 225.324 389.068C226.316 389.221 227.267 389.547 228.136 390.048C228.68 390.355 229.157 390.768 229.538 391.262C229.919 391.757 230.197 392.322 230.355 392.926C230.829 394.671 231.043 396.476 230.989 398.284C231.03 399.825 230.846 401.356 230.457 402.846C230.196 403.836 229.768 404.775 229.189 405.622C228.615 406.289 227.858 406.775 227.011 407.02C226.231 407.309 225.416 407.498 224.588 407.581H179.543C178.003 407.618 176.465 407.443 174.972 407.061C173.985 406.821 173.054 406.391 172.232 405.795C171.54 405.235 171.036 404.476 170.79 403.621C170.509 402.841 170.33 402.028 170.258 401.203C170.208 400.196 170.184 399.189 170.186 398.182V339.396C170.186 335.824 170.892 333.364 172.232 332.027C173.561 330.7 176.097 330.068 179.86 330.098H221.653C222.88 330.078 224.107 330.129 225.314 330.241C226.302 330.422 227.252 330.767 228.126 331.262C228.668 331.561 229.144 331.967 229.525 332.454C229.907 332.942 230.185 333.501 230.345 334.099C230.764 335.466 230.979 337.263 230.979 339.508C231.02 341.039 230.836 342.57 230.447 344.06C230.207 345.045 229.776 345.974 229.179 346.795C228.617 347.485 227.857 347.987 227.001 348.234C226.219 348.514 225.405 348.692 224.578 348.765L221.551 348.836H188.981V359.491H209.985C211.212 359.491 212.429 359.542 213.646 359.675C214.638 359.807 215.589 360.144 216.458 360.655C217.005 360.962 217.485 361.375 217.871 361.869C218.258 362.363 218.542 362.928 218.708 363.533C219.127 364.859 219.342 366.645 219.342 368.932C219.373 370.462 219.199 371.993 218.81 373.494C218.552 374.478 218.112 375.406 217.511 376.229C216.947 376.907 216.186 377.396 215.333 377.627C214.529 377.921 213.691 378.109 212.838 378.188H188.981V388.884V388.894ZM296.567 330.21C298.084 330.174 299.598 330.349 301.067 330.731C302.054 330.971 302.985 331.401 303.807 331.996C304.462 332.576 304.937 333.33 305.177 334.17C305.468 334.949 305.657 335.762 305.74 336.589C305.781 337.293 305.781 338.273 305.781 339.61V398.294C305.801 399.529 305.76 400.774 305.637 402.009C305.455 402.972 305.109 403.897 304.615 404.744C304.315 405.289 303.909 405.768 303.421 406.154C302.933 406.539 302.372 406.823 301.772 406.989C300.402 407.398 298.602 407.622 296.352 407.622C294.103 407.622 291.669 407.408 290.626 406.989C289.569 406.571 288.651 405.863 287.978 404.948C277.579 391.088 267.108 377.283 256.564 363.533V398.284C256.584 399.529 256.543 400.774 256.421 402.009C256.239 402.972 255.893 403.897 255.398 404.744C255.099 405.289 254.693 405.769 254.205 406.154C253.717 406.54 253.156 406.824 252.555 406.989C251.185 407.398 249.385 407.622 247.136 407.622C244.886 407.622 243.199 407.408 241.89 406.989C240.694 406.638 239.684 405.831 239.078 404.744C238.561 403.867 238.214 402.901 238.055 401.897C237.926 400.663 237.868 399.422 237.881 398.182V339.192C237.881 337.987 237.963 336.793 238.127 335.609C238.315 334.675 238.649 333.776 239.119 332.946C239.425 332.427 239.831 331.974 240.314 331.613C240.796 331.252 241.346 330.991 241.931 330.843C243.26 330.415 245.101 330.21 247.35 330.21C248.976 330.17 250.592 330.353 252.157 330.772C253.115 331.002 254.01 331.445 254.774 332.068C255.439 332.741 256.073 333.456 256.666 334.211L257.198 334.834C267.047 348.287 277.014 361.654 287.098 374.933V339.181C287.061 337.987 287.129 336.792 287.303 335.609C287.49 334.675 287.825 333.776 288.295 332.946C288.601 332.427 289.007 331.974 289.49 331.613C289.972 331.252 290.522 330.991 291.107 330.843C292.885 330.364 294.726 330.15 296.567 330.21ZM382.014 368.37C382.014 379.107 378.21 388.302 370.612 395.977C367.049 399.687 362.759 402.625 358.009 404.609C353.259 406.593 348.151 407.581 343.003 407.51H323.574C321.831 407.549 320.092 407.339 318.41 406.887C317.219 406.588 316.188 405.847 315.526 404.815C314.996 403.93 314.635 402.954 314.462 401.937C314.323 400.656 314.255 399.368 314.258 398.08V339.294C314.248 338.069 314.309 336.834 314.432 335.609C314.593 334.634 314.925 333.694 315.413 332.833C315.722 332.292 316.137 331.819 316.632 331.44C317.127 331.061 317.693 330.786 318.297 330.629C319.637 330.21 321.436 329.996 323.717 329.996H333.462L343.309 330.068C353.556 330.068 362.595 333.742 370.367 341.11C378.138 348.479 382.014 357.613 382.014 368.37ZM363.26 368.789C363.26 363.175 361.256 358.409 357.278 354.582C355.434 352.734 353.241 351.271 350.825 350.277C348.409 349.284 345.82 348.78 343.207 348.795H333.043V388.782H343.32C348.412 388.782 352.993 386.925 357.104 383.138C361.225 379.352 363.26 374.575 363.26 368.789Z" fill="#8D9EFF"/>
<path d="M110.151 332.241L109.231 331.017C102.195 321.576 97.5529 310.35 95.4464 297.694C93.0887 283.15 93.0887 268.322 95.4464 253.778C97.6552 239.694 101.735 225.967 107.584 212.955L107.012 212.179V212.036C98.9641 198.534 92.9104 177.03 90.8346 154.516C90.0165 145.994 88.1963 117.571 97.8699 110.253C100.968 107.906 105.682 106.742 112.227 106.742C136.564 106.742 181.425 123.337 192.857 127.756C200.979 124.529 209.422 122.175 218.044 120.735C224.323 119.69 230.677 119.151 237.043 119.122C240.418 116.315 253.22 105.65 267.925 95.1688C291.179 78.5026 308.133 70.0215 318.267 70.0215C319.831 70.0215 321.386 70.2562 322.868 70.7155C334.383 74.5733 341.837 102.048 343.811 110.355C348.944 131.583 350.253 153.118 347.39 168.406C370.265 191.727 385.461 220.456 390.236 249.431C393.13 266.679 390.737 282.681 383.18 296.99C376.278 310.074 365.06 321.75 349.824 331.751L349.046 332.241H110.151Z" fill="#5959FF"/>
<path d="M318.267 73.1036C319.508 73.0698 320.747 73.2493 321.928 73.6343C335.998 78.329 350.989 136.911 344.087 169.416C366.256 191.665 382.229 219.854 387.219 249.951C392.946 284.539 376.482 310.635 348.095 329.22H111.675C105.13 320.423 100.559 309.829 98.4835 297.204C93.8 268.965 98.9334 239.184 111.174 212.393C110.583 211.829 110.055 211.203 109.599 210.526C92.5627 181.919 87.8486 121.653 99.6288 112.702C102.339 110.631 106.705 109.794 112.155 109.794C136.748 109.794 182.969 127.195 192.786 131.022C207.033 125.12 222.313 122.102 237.738 122.143H238.096C238.096 122.143 295.433 73.073 318.236 73.073L318.267 73.1036ZM318.236 67.0005C307.325 67.0005 290.268 75.3795 266.064 92.6785C255.71 100.107 245.631 107.909 235.847 116.07C221.092 116.254 206.491 119.093 192.745 124.449C181.889 120.307 170.897 116.528 159.787 113.121C139.203 106.885 123.199 103.691 112.155 103.691C104.905 103.691 99.5981 105.058 95.9372 107.824C91.6833 111.09 89.0041 117.295 87.7361 126.94C86.7545 134.696 86.7136 144.31 87.7055 154.802C89.812 177.52 95.9372 199.34 104.097 213.261C98.5314 226.07 94.6077 239.529 92.4196 253.319C90.0259 268.192 90.0259 283.352 92.4196 298.225C94.5977 311.339 99.414 323.025 106.766 332.833L108.607 335.283H349.967L351.48 334.272C367.167 324.036 378.742 311.931 385.88 298.429C393.754 283.528 396.228 266.862 393.273 248.971C390.737 233.571 385.399 218.384 377.515 203.831C370.248 190.547 361.219 178.302 350.672 167.426C353.229 151.852 351.828 130.552 346.797 109.661C344.343 99.4552 341.203 90.3311 337.757 83.3095C333.462 74.5732 328.932 69.5315 323.86 67.8476C322.052 67.2726 320.164 66.9868 318.267 67.0005H318.236Z" fill="black"/>
<path d="M265.777 302.848C262.699 302.848 259.673 301.981 257.055 300.358C254.715 298.925 252.764 296.941 251.373 294.58C249.983 292.218 249.195 289.551 249.079 286.815C249.127 286.208 249.397 285.641 249.836 285.219C250.275 284.797 250.854 284.551 251.463 284.526C252.072 284.5 252.669 284.699 253.141 285.083C253.614 285.467 253.929 286.01 254.028 286.61C254.101 288.35 254.56 290.051 255.371 291.592C256.182 293.133 257.326 294.475 258.72 295.522C260.114 296.569 261.723 297.293 263.431 297.644C265.14 297.995 266.905 297.963 268.6 297.551C270.107 297.2 271.528 296.55 272.779 295.64C274.029 294.73 275.084 293.579 275.88 292.254C276.693 290.94 277.238 289.478 277.483 287.953C277.728 286.428 277.668 284.87 277.308 283.368C276.948 281.865 276.294 280.449 275.384 279.2C274.474 277.951 273.326 276.893 272.005 276.088C271.511 275.792 271.136 275.332 270.945 274.789C270.755 274.247 270.76 273.654 270.96 273.115C271.16 272.575 271.542 272.122 272.041 271.834C272.54 271.546 273.124 271.441 273.692 271.536C274.018 271.587 274.331 271.701 274.612 271.873C277.43 273.607 279.671 276.135 281.052 279.137C282.433 282.14 282.893 285.484 282.374 288.747C281.854 292.01 280.379 295.046 278.133 297.474C275.888 299.902 272.973 301.612 269.755 302.389C268.449 302.68 267.116 302.834 265.777 302.848Z" fill="black"/>
<path d="M237.462 307.054C234.451 307.068 231.494 306.256 228.913 304.706C226.782 303.454 224.956 301.744 223.568 299.7C222.18 297.657 221.264 295.331 220.888 292.891C220.511 290.451 220.682 287.958 221.389 285.592C222.097 283.226 223.322 281.047 224.976 279.212C225.416 278.726 226.029 278.433 226.683 278.394C227.338 278.356 227.981 278.577 228.474 279.008C228.72 279.223 228.921 279.485 229.065 279.778C229.208 280.072 229.292 280.391 229.31 280.717C229.328 281.044 229.28 281.37 229.17 281.678C229.06 281.985 228.889 282.268 228.668 282.509C227.389 283.948 226.48 285.677 226.02 287.546C225.56 289.415 225.564 291.368 226.03 293.235C226.459 294.925 227.259 296.498 228.372 297.842C229.485 299.186 230.883 300.266 232.465 301.005C234.046 301.744 235.773 302.124 237.52 302.116C239.266 302.108 240.99 301.714 242.565 300.961C244.316 300.127 245.834 298.877 246.986 297.32C248.138 295.762 248.888 293.946 249.171 292.031C249.385 290.5 249.293 288.948 248.895 287.448C248.803 287.054 248.808 286.643 248.909 286.251C249.01 285.859 249.204 285.497 249.475 285.196C249.746 284.895 250.085 284.663 250.465 284.52C250.844 284.377 251.253 284.328 251.656 284.376C252.143 284.442 252.6 284.652 252.966 284.979C253.333 285.307 253.592 285.737 253.711 286.213C254.268 288.341 254.393 290.559 254.079 292.736C253.764 294.913 253.017 297.005 251.881 298.889C250.412 301.398 248.304 303.474 245.772 304.908C243.24 306.342 240.373 307.082 237.462 307.054ZM283.724 252.83C278.61 252.8 273.674 250.95 269.805 247.613C265.936 244.275 263.387 239.669 262.618 234.623L260.542 220.702C260.476 220.308 260.49 219.905 260.582 219.517C260.674 219.128 260.842 218.762 261.077 218.439C261.312 218.116 261.609 217.843 261.951 217.636C262.293 217.429 262.672 217.291 263.068 217.232C263.869 217.111 264.685 217.312 265.338 217.79C265.991 218.268 266.429 218.985 266.555 219.783L268.63 233.745C269.152 236.665 270.515 239.37 272.552 241.529C274.59 243.688 277.214 245.207 280.103 245.901C282.992 246.595 286.022 246.434 288.82 245.437C291.619 244.44 294.066 242.65 295.862 240.287C298.275 237.133 299.359 233.163 298.889 229.224L296.813 215.303C296.717 214.708 296.802 214.098 297.058 213.553C297.313 213.007 297.726 212.55 298.244 212.241C298.673 211.984 299.158 211.836 299.657 211.811C300.157 211.785 300.655 211.882 301.107 212.094C301.56 212.306 301.953 212.626 302.253 213.025C302.553 213.424 302.749 213.891 302.826 214.384L304.932 228.315C305.389 231.357 305.182 234.461 304.325 237.416C303.468 240.37 301.982 243.105 299.968 245.433C297.954 247.761 295.459 249.627 292.656 250.904C289.852 252.18 286.805 252.837 283.724 252.83Z" fill="black"/>
<path d="M197.704 129.113C197.704 129.113 208.574 134.869 207.91 148.443C207.245 162.619 197.888 161.558 199.647 177.244C201.406 192.92 242.841 222.762 222.655 268.301C202.776 313.197 113.065 301.409 96.9596 283.763C93.0841 236.275 123.618 189.828 123.618 189.828C123.618 189.828 160.84 137.778 197.704 129.113Z" fill="#6678FF"/>
<path d="M202.142 262.515C197.076 262.509 192.177 260.706 188.319 257.43C184.46 254.153 181.894 249.614 181.077 244.624L178.96 230.693C178.886 230.291 178.893 229.877 178.982 229.478C179.07 229.078 179.239 228.7 179.477 228.367C179.715 228.034 180.018 227.751 180.367 227.537C180.717 227.323 181.106 227.181 181.511 227.12C181.917 227.059 182.331 227.081 182.728 227.182C183.125 227.284 183.498 227.465 183.824 227.714C184.149 227.962 184.422 228.274 184.625 228.63C184.827 228.985 184.956 229.378 185.004 229.785L187.08 243.706C187.797 247.6 190.003 251.063 193.232 253.363C196.46 255.664 200.459 256.622 204.382 256.034C208.301 255.451 211.841 253.374 214.258 250.239C216.674 247.104 217.778 243.156 217.338 239.225L215.262 225.294C215.194 224.901 215.206 224.499 215.297 224.11C215.389 223.722 215.559 223.357 215.795 223.035C216.032 222.714 216.332 222.444 216.676 222.241C217.02 222.038 217.402 221.907 217.798 221.855C218.395 221.756 219.009 221.839 219.558 222.094C220.107 222.349 220.567 222.764 220.876 223.284C221.08 223.641 221.223 224.019 221.285 224.417L223.391 238.378C223.794 241.395 223.545 244.463 222.661 247.376C221.777 250.289 220.277 252.978 218.264 255.264C216.251 257.55 213.77 259.379 210.989 260.628C208.208 261.877 205.192 262.527 202.142 262.515Z" fill="black"/>
<path d="M160.984 154.72C160.984 154.72 147.547 136.165 133.374 126.449C119.18 116.733 108.382 112.039 102.441 114.876C94.9453 118.53 94.526 141.615 98.8617 165.283C103.177 188.96 109.865 200.085 112.892 206.208C115.918 212.352 160.984 154.72 160.984 154.72Z" fill="#6678FF"/>
<path opacity="0.2" d="M307.397 138.034C304.68 147.194 298.489 154.934 290.141 159.606C281.793 164.278 271.947 165.513 262.7 163.049C253.456 160.596 245.534 154.643 240.617 146.454C235.701 138.266 234.176 128.486 236.368 119.194C236.368 119.194 250.971 105.579 302.12 76.1557C352.994 48.1916 349.016 165.763 349.016 165.763L307.397 138.034Z" fill="black"/>
<path d="M280.728 127.787C280.728 127.787 285.411 111.233 295.575 97.3731C305.74 83.5237 314.289 75.4509 320.874 76.1959C329.137 77.1348 337.235 98.7815 341.019 122.531C344.823 146.269 342.297 159.006 341.448 165.773C336.98 158.404 280.728 127.787 280.728 127.787Z" fill="#6678FF"/>
<path d="M351.368 335.293H107.482L106.521 334.027C99.3527 324.352 94.5977 312.911 92.4503 300.011C87.9509 272.721 91.9594 243.368 104.128 215.129C115.816 188.012 134.632 163.589 157.149 146.311C157.804 145.871 158.601 145.697 159.38 145.823C160.158 145.949 160.86 146.365 161.342 146.988C161.825 147.611 162.052 148.394 161.978 149.178C161.903 149.961 161.533 150.688 160.943 151.209C115.601 186.052 89.9552 246.839 98.6062 298.991C100.508 310.35 104.558 320.454 110.642 329.047H349.496C379.714 308.941 392.445 282.957 387.281 251.778C378.343 198.003 333.493 148.086 278.151 130.42C277.423 130.122 276.835 129.561 276.503 128.849C276.171 128.137 276.12 127.327 276.36 126.579C276.6 125.831 277.113 125.201 277.797 124.814C278.482 124.427 279.287 124.311 280.053 124.49C307.458 133.267 333.738 150.373 354.108 172.713C364.157 183.697 372.695 195.966 379.499 209.199C386.248 222.263 390.952 236.275 393.437 250.758C396.351 268.332 393.897 284.682 386.187 299.307C379.151 312.636 367.678 324.556 352.135 334.762L351.357 335.293H351.368Z" fill="black"/>
<path d="M112.994 341.008C111.565 341.011 110.15 340.733 108.829 340.19C107.508 339.646 106.307 338.849 105.294 337.842C104.282 336.836 103.479 335.64 102.929 334.324C102.38 333.007 102.096 331.596 102.093 330.17C102.093 329.149 102.236 328.129 102.553 327.159C104.977 318.841 110.499 312.075 118.516 307.686C125.776 303.655 135.082 301.512 145.4 301.512C155.707 301.512 165.033 303.655 172.314 307.656C180.331 312.105 185.853 318.841 188.276 327.149C188.743 328.768 188.825 330.473 188.518 332.129C188.21 333.785 187.521 335.347 186.504 336.691C185.487 338.036 184.171 339.126 182.66 339.875C181.148 340.624 179.483 341.012 177.795 341.008H112.994Z" fill="#5959FF"/>
<path d="M145.389 304.593C164.573 304.593 180.678 312.104 185.362 328.026C185.695 329.192 185.752 330.419 185.528 331.611C185.303 332.803 184.805 333.926 184.071 334.892C183.337 335.858 182.388 336.641 181.298 337.178C180.209 337.715 179.01 337.992 177.795 337.987H112.994C111.783 337.983 110.589 337.701 109.507 337.16C108.424 336.62 107.481 335.837 106.752 334.872C106.023 333.907 105.527 332.787 105.305 331.599C105.082 330.411 105.138 329.188 105.468 328.026C110.11 312.104 126.226 304.603 145.399 304.603L145.389 304.593ZM145.389 298.5C121.829 298.5 104.69 308.879 99.598 326.311C99.0025 328.382 98.8971 330.562 99.29 332.681C99.683 334.799 100.564 336.798 101.862 338.518C103.161 340.239 104.843 341.635 106.774 342.597C108.706 343.558 110.835 344.059 112.994 344.059H177.805C181.502 344.064 185.051 342.604 187.67 340C190.289 337.395 191.765 333.859 191.773 330.169C191.776 328.862 191.586 327.563 191.211 326.311C186.149 308.879 169.011 298.5 145.389 298.5Z" fill="black"/>
<path d="M160.493 327.537C160.493 327.537 162.64 332.518 161.894 336.763L160.493 327.537Z" fill="#5959FF"/>
<path d="M161.894 339.814H161.403C160.608 339.674 159.9 339.227 159.433 338.57C158.966 337.913 158.777 337.098 158.908 336.303C159.368 333.568 158.172 329.925 157.681 328.771C157.393 328.032 157.404 327.211 157.713 326.48C158.021 325.749 158.602 325.167 159.333 324.857C160.064 324.546 160.887 324.532 161.629 324.817C162.37 325.102 162.971 325.664 163.305 326.383C163.55 326.975 165.759 332.303 164.921 337.293C164.795 338.002 164.423 338.644 163.869 339.106C163.315 339.567 162.615 339.818 161.894 339.814Z" fill="black"/>
<path d="M134.243 327.537C134.243 327.537 131.012 333.885 131.993 337.988L134.243 327.537Z" fill="#5959FF"/>
<path d="M131.994 341.007C131.31 341.016 130.644 340.79 130.107 340.369C129.569 339.948 129.192 339.355 129.038 338.691C127.811 333.68 131.155 326.913 131.533 326.168C131.905 325.466 132.539 324.937 133.297 324.696C134.056 324.455 134.879 324.52 135.589 324.879C136.3 325.237 136.841 325.86 137.096 326.613C137.351 327.365 137.3 328.188 136.953 328.903C135.828 331.149 134.458 335.221 134.949 337.252C135.063 337.699 135.073 338.166 134.978 338.618C134.882 339.07 134.684 339.493 134.399 339.856C134.113 340.219 133.747 340.512 133.33 340.712C132.913 340.911 132.456 341.012 131.994 341.007Z" fill="black"/>
<path d="M281.597 201.096C289.675 200.341 295.831 195.411 295.33 190.063C294.839 184.716 287.875 180.99 279.787 181.746C271.708 182.491 265.552 187.43 266.053 192.768C266.544 198.116 273.508 201.841 281.597 201.096Z" fill="#6678FF"/>
<path d="M193.829 214.169C201.876 212.802 207.654 207.372 206.734 202.065C205.813 196.758 198.553 193.564 190.516 194.941C182.478 196.309 176.711 201.739 177.621 207.046C178.541 212.353 185.801 215.537 193.829 214.169Z" fill="#5959FF"/>
<path opacity="0.2" d="M360.203 184.328C360.203 184.328 351.971 198.504 344.128 204.219C336.284 209.935 321.754 211.231 321.539 216.844C321.334 222.457 346.725 232.867 375.296 206.883L360.203 184.328Z" fill="black"/>
<path opacity="0.2" d="M376.697 208.984C376.697 208.984 366.011 221.436 357.247 225.62C348.484 229.784 333.953 228.416 332.726 233.887C331.499 239.357 354.538 254.237 387.393 233.928L376.697 208.984Z" fill="black"/>
<path d="M249.876 263.74C249.811 263.916 249.712 264.078 249.585 264.216C249.457 264.354 249.303 264.466 249.132 264.544C248.961 264.623 248.776 264.667 248.588 264.675C248.4 264.682 248.212 264.652 248.036 264.587C247.797 264.5 247.586 264.352 247.422 264.158C246.135 262.715 244.431 261.704 242.545 261.265C240.659 260.827 238.684 260.982 236.89 261.709C232.462 263.638 230.212 269.067 231.899 273.915C233.587 278.753 246.86 288.224 251.533 286.754C256.595 286.04 266.34 273.211 266.841 268.302C267.332 263.393 263.916 258.586 259.202 258.127C255.47 257.739 251.605 260.168 249.876 263.74Z" fill="black"/>
<path opacity="0.1" d="M345.61 169.875C345.743 170.222 381.452 248.379 345.457 297.163C334.239 312.39 316.017 322.698 296.209 329.648H349.609C377.965 311.053 394.469 284.997 388.733 250.41C383.732 220.312 367.77 192.083 345.6 169.885L345.61 169.875Z" fill="black"/>
<path d="M310.25 341.008C308.564 341.011 306.901 340.623 305.393 339.873C303.884 339.124 302.571 338.034 301.557 336.69C300.543 335.347 299.856 333.786 299.551 332.132C299.246 330.477 299.331 328.775 299.799 327.159C302.222 318.841 307.744 312.075 315.772 307.686C323.022 303.655 332.337 301.512 342.686 301.512C353.024 301.512 362.32 303.655 369.559 307.656C377.576 312.105 383.098 318.841 385.532 327.149C386.007 328.766 386.096 330.471 385.794 332.128C385.492 333.785 384.806 335.349 383.791 336.696C382.776 338.042 381.46 339.132 379.948 339.881C378.436 340.63 376.769 341.016 375.081 341.008H310.25Z" fill="#5959FF"/>
<path d="M342.686 304.592C361.859 304.592 377.965 312.104 382.607 328.025C382.946 329.188 383.008 330.414 382.789 331.605C382.57 332.797 382.075 333.921 381.345 334.888C380.614 335.855 379.667 336.638 378.58 337.176C377.493 337.714 376.295 337.991 375.081 337.986H310.25C308.174 337.978 306.185 337.152 304.716 335.688C303.247 334.224 302.417 332.24 302.406 330.168C302.406 329.444 302.509 328.719 302.713 328.025C307.366 312.104 323.471 304.603 342.645 304.603L342.686 304.592ZM342.645 298.51C319.074 298.51 301.946 308.889 296.843 326.321C296.257 328.391 296.158 330.569 296.554 332.684C296.951 334.799 297.832 336.793 299.129 338.512C300.427 340.23 302.104 341.626 304.032 342.59C305.959 343.554 308.084 344.06 310.239 344.069H375.081C377.24 344.069 379.369 343.568 381.301 342.607C383.232 341.645 384.914 340.249 386.213 338.528C387.511 336.807 388.392 334.809 388.785 332.691C389.178 330.572 389.072 328.392 388.477 326.321C383.384 308.889 366.256 298.51 342.686 298.51H342.645Z" fill="black"/>
<path d="M357.738 327.537C357.738 327.537 359.886 332.518 359.149 336.763L357.738 327.537Z" fill="#5959FF"/>
<path d="M359.15 339.813H358.618C357.823 339.674 357.115 339.227 356.648 338.569C356.181 337.912 355.992 337.098 356.123 336.303C356.614 333.567 355.417 329.924 354.926 328.771C354.714 328.221 354.666 327.621 354.789 327.044C354.911 326.468 355.199 325.939 355.618 325.523C356.036 325.106 356.566 324.82 357.144 324.699C357.722 324.579 358.323 324.628 358.874 324.841C359.608 325.119 360.209 325.667 360.551 326.372C360.796 326.985 363.015 332.312 362.176 337.323C362.037 338.023 361.66 338.653 361.108 339.107C360.556 339.561 359.865 339.811 359.15 339.813Z" fill="black"/>
<path d="M331.499 327.547C331.499 327.547 328.257 333.895 329.249 337.998L331.499 327.547Z" fill="#5959FF"/>
<path d="M329.249 341.007C328.564 341.02 327.895 340.796 327.355 340.374C326.814 339.952 326.436 339.358 326.284 338.69C325.057 333.679 328.401 326.913 328.789 326.168C328.968 325.812 329.216 325.494 329.518 325.235C329.821 324.975 330.172 324.777 330.552 324.654C330.931 324.531 331.331 324.484 331.729 324.516C332.127 324.548 332.515 324.658 332.869 324.841C333.228 325.018 333.548 325.264 333.811 325.564C334.074 325.865 334.275 326.215 334.402 326.593C334.529 326.971 334.58 327.371 334.553 327.769C334.525 328.167 334.418 328.556 334.24 328.913C333.074 331.158 331.744 335.22 332.235 337.251C332.342 337.701 332.345 338.17 332.244 338.621C332.143 339.072 331.941 339.495 331.652 339.856C331.364 340.218 330.996 340.51 330.578 340.709C330.16 340.908 329.702 341.01 329.239 341.007H329.249Z" fill="black"/>
</g>
</svg>
