<svg width="805" height="805" viewBox="0 0 805 805" fill="none" xmlns="http://www.w3.org/2000/svg">
<circle cx="402.5" cy="402.5" r="402.5" fill="#222222"/>
<g clip-path="url(#clip0_2078_13679)">
<path d="M214.586 312.84V493.16C214.586 504.752 220.658 515.24 230.778 521.128L386.994 611.288C396.93 616.992 409.258 616.992 419.194 611.288L575.41 521.128C585.346 515.424 591.602 504.752 591.602 493.16V312.84C591.602 301.248 585.53 290.76 575.41 284.872L419.194 194.712C409.258 189.008 396.93 189.008 386.994 194.712L230.778 284.872C220.842 290.576 214.77 301.248 214.77 312.84H214.586Z" fill="#213147"/>
<path d="M437.046 437.968L414.782 499.056C414.23 500.712 414.23 502.552 414.782 504.392L453.054 609.456L497.398 583.88L444.222 437.968C442.934 434.656 438.334 434.656 437.046 437.968Z" fill="#12AAFF"/>
<path d="M481.757 335.3C480.469 331.988 475.869 331.988 474.581 335.3L452.317 396.388C451.765 398.044 451.765 399.884 452.317 401.724L515.061 573.764L559.405 548.188L481.757 335.484V335.3Z" fill="#12AAFF"/>
<path d="M403.002 201.52C404.106 201.52 405.21 201.888 406.13 202.44L575.042 299.96C577.066 301.064 578.17 303.272 578.17 305.48V500.52C578.17 502.728 576.882 504.936 575.042 506.04L406.13 603.56C405.21 604.112 404.106 604.48 403.002 604.48C401.898 604.48 400.794 604.112 399.874 603.56L230.962 506.04C228.938 504.936 227.834 502.728 227.834 500.52V305.296C227.834 303.088 229.122 300.88 230.962 299.776L399.874 202.256C400.794 201.704 401.898 201.336 403.002 201.336V201.52ZM403.002 173C396.93 173 391.042 174.472 385.522 177.6L216.61 275.12C205.754 281.376 199.13 292.784 199.13 305.296V500.336C199.13 512.848 205.754 524.256 216.61 530.512L385.522 628.032C390.858 631.16 396.93 632.632 403.002 632.632C409.074 632.632 414.962 631.16 420.482 628.032L589.394 530.512C600.25 524.256 606.874 512.848 606.874 500.336V305.296C606.874 292.784 600.25 281.376 589.394 275.12L420.298 177.6C414.962 174.472 408.89 173 402.818 173H403.002Z" fill="#9DCCED"/>
<path d="M291.129 573.938L306.769 531.25L338.049 557.194L308.793 584.058L291.129 573.938Z" fill="#213147"/>
<path d="M388.65 291.497H345.778C342.65 291.497 339.706 293.52 338.602 296.464L246.786 548.177L291.13 573.753L392.33 296.464C393.25 293.888 391.41 291.312 388.834 291.312L388.65 291.497Z" fill="white"/>
<path d="M463.723 291.497H420.851C417.723 291.497 414.779 293.521 413.675 296.465L308.795 583.873L353.139 609.449L467.219 296.465C468.139 293.889 466.299 291.312 463.723 291.312V291.497Z" fill="white"/>
</g>
<defs>
<clipPath id="clip0_2078_13679">
<rect width="460" height="460" fill="white" transform="translate(173 173)"/>
</clipPath>
</defs>
</svg>
