<svg width="805" height="805" viewBox="0 0 805 805" fill="none" xmlns="http://www.w3.org/2000/svg">
<circle cx="402.5" cy="402.5" r="402.5" fill="#222222"/>
<path d="M262.608 525.107C235.686 525.107 213.642 518.783 196.477 506.135C179.492 493.306 171 474.876 171 451.206C171 446.147 171.542 440.184 172.626 432.957C175.517 416.695 179.673 397.181 185.093 374.234C200.452 312.078 240.203 281 304.166 281C321.511 281 337.231 283.891 350.963 289.854C364.695 295.455 375.537 304.128 383.487 315.692C391.437 327.075 395.412 340.626 395.412 356.346C395.412 361.044 394.87 367.007 393.786 374.234C390.353 394.29 386.378 413.985 381.499 432.957C373.549 463.854 359.998 487.163 340.483 502.521C321.15 517.699 295.131 525.107 262.608 525.107ZM267.486 476.322C280.134 476.322 290.795 472.527 299.648 465.119C308.683 457.711 315.187 446.328 318.982 430.789C324.222 409.468 328.197 391.038 330.907 375.137C331.811 370.44 332.353 365.561 332.353 360.502C332.353 339.904 321.692 329.605 300.19 329.605C287.542 329.605 276.701 333.399 267.667 340.807C258.813 348.215 252.489 359.598 248.695 375.137C244.539 390.315 240.564 408.745 236.408 430.789C235.505 435.306 234.963 440.004 234.963 445.063C234.782 466.022 245.804 476.322 267.486 476.322Z" fill="#FF0420"/>
<path d="M411.13 521.851C408.601 521.851 406.794 521.128 405.349 519.502C404.264 517.695 403.903 515.708 404.264 513.359L451.062 292.922C451.423 290.392 452.688 288.405 454.856 286.779C456.844 285.152 459.012 284.43 461.361 284.43H551.523C576.639 284.43 596.695 289.67 611.873 299.969C627.231 310.448 635 325.445 635 345.14C635 350.741 634.278 356.704 633.013 362.847C627.412 388.866 616.028 408.019 598.683 420.486C581.698 432.954 558.39 439.097 528.757 439.097H483.044L467.505 513.359C466.962 515.888 465.878 517.876 463.71 519.502C461.723 521.128 459.554 521.851 457.205 521.851H411.13ZM531.106 392.299C540.682 392.299 548.813 389.77 555.86 384.53C563.087 379.29 567.785 371.882 570.134 362.125C570.857 358.33 571.218 354.897 571.218 352.006C571.218 345.502 569.231 340.442 565.436 337.009C561.642 333.396 554.957 331.589 545.742 331.589H505.087L492.259 392.299H531.106Z" fill="#FF0420"/>
</svg>
