<svg width="805" height="805" viewBox="0 0 805 805" fill="none" xmlns="http://www.w3.org/2000/svg">
<circle cx="402.5" cy="402.5" r="402.5" fill="#222222"/>
<path d="M295.77 330.488C303.355 326.081 313.107 326.081 321.775 330.488L382.454 366.849L423.629 389.987L483.225 426.347C490.809 430.754 500.561 430.754 509.23 426.347L555.822 397.7C563.407 393.292 568.825 384.478 568.825 374.561V319.47C568.825 310.655 564.491 301.841 555.822 296.332L509.23 268.786C501.645 264.379 491.893 264.379 483.225 268.786L436.632 297.433C429.047 301.841 423.629 310.655 423.629 320.572V356.932L382.454 332.692V295.23C382.454 286.415 386.789 277.6 395.457 272.091L482.141 220.305C489.726 215.898 499.478 215.898 508.146 220.305L596.997 273.193C605.666 277.6 610 286.415 610 295.23V398.801C610 407.616 605.666 416.431 596.997 421.94L509.23 473.726C501.645 478.133 491.893 478.133 483.225 473.726L423.629 438.467L382.454 414.227L322.859 378.969C315.274 374.561 305.522 374.561 296.854 378.969L250.261 406.514C242.676 410.922 237.258 419.736 237.258 429.653V484.744C237.258 493.559 241.593 502.373 250.261 507.882L295.77 535.428C303.355 539.835 313.107 539.835 321.775 535.428L368.368 507.882C375.953 503.475 381.371 494.66 381.371 484.744V449.486L422.546 473.726V510.086C422.546 518.901 418.211 527.715 409.543 533.224L321.775 585.01C314.191 589.418 304.439 589.418 295.77 585.01L208.003 533.224C200.418 528.817 195 520.003 195 510.086V405.412C195 396.598 199.334 387.783 208.003 382.274L295.77 330.488Z" fill="#8247E5"/>
</svg>
